<?xml version="1.0" standalone="no"?>
<!DOCTYPE svg PUBLIC "-//W3C//DTD SVG 20010904//EN"
 "http://www.w3.org/TR/2001/REC-SVG-20010904/DTD/svg10.dtd">
<svg version="1.0" xmlns="http://www.w3.org/2000/svg"
 width="700.000000pt" height="700.000000pt" viewBox="0 0 700.000000 700.000000"
 preserveAspectRatio="xMidYMid meet">
<metadata>
Created by potrace 1.14, written by Peter Selinger 2001-2017
</metadata>
<g transform="translate(0.000000,700.000000) scale(0.100000,-0.100000)"
fill="#000000" stroke="none">
<path d="M450 3500 l0 -3500 1080 0 1080 0 0 3500 0 3500 -1080 0 -1080 0 0
-3500z"/>
<path d="M3080 3500 l0 -3500 1185 0 1185 0 0 108 0 107 137 120 c75 66 143
127 152 136 9 9 57 50 108 93 124 104 182 198 252 418 33 100 44 157 61 308
53 459 59 649 31 935 -11 116 -29 244 -39 285 -99 385 -102 392 -221 490 -84
70 -169 156 -199 201 -12 19 -41 62 -64 97 -54 83 -145 151 -259 192 -129 46
-329 186 -329 229 0 30 217 258 336 353 78 62 93 78 174 192 86 119 175 280
222 401 10 28 30 66 42 85 151 233 162 258 180 430 30 282 30 295 3 415 -14
61 -39 156 -57 210 -28 91 -38 107 -101 180 -70 81 -139 204 -179 320 -41 119
-151 232 -277 283 -65 26 -147 79 -213 139 l-50 45 0 114 0 114 -1040 0 -1040
0 0 -3500z"/>
</g>
</svg>
