<svg xmlns="http://www.w3.org/2000/svg" viewBox="0 0 100 100"><title>строится</title><path fill="#fff" d="M0 0h100v100H0z"/><path fill="none" stroke="#1e4c9a" stroke-linecap="round" stroke-linejoin="round" stroke-width="3" d="M44.616 30.989h11.343v47.282H44.616zM71.719 92.5H28.856l2.947-6.129h36.968l2.948 6.129zM44.76 78.6l-3.071 4.779v2.226M55.364 78.6l3.07 4.779v2.226"/><path d="M55.766 73.162a1.493 1.493 0 0 1-1.056-.434L44.482 62.59a1.5 1.5 0 0 1-.027-2.103l8.622-8.993-8.988-9.323a1.501 1.501 0 0 1 .077-2.157c10.335-9.285 10.397-9.285 11.156-9.285a1.5 1.5 0 0 1 .73 2.81c-.767.579-5.327 4.626-8.724 7.67l8.91 9.242a1.5 1.5 0 0 1 .003 2.079l-8.6 8.968 9.18 9.098a1.5 1.5 0 0 1-1.055 2.565z" fill="#1e4c9a"/><path fill="none" stroke="#1e4c9a" stroke-linecap="round" stroke-linejoin="round" stroke-width="3" d="M12.5 30.989h75v-5.145L50.159 10.048 50 14.864 13.073 26.173l-.573 4.816zM50 7.5v18.09m-35.736.219h72.76m-21.897 5.18h18.484v8.975H65.127zm-43.948.438h6.714v14.666h-6.714zm-5.076 14.666h17.112v6.567H16.103z"/><path fill="none" stroke="#1e4c9a" stroke-linecap="round" stroke-linejoin="round" stroke-width="3" d="M21.179 52.66h6.714v6.786h-6.714z"/><ellipse cx="24.659" cy="63.839" rx="4.34" ry="3.867" fill="none" stroke="#1e4c9a" stroke-linecap="round" stroke-linejoin="round" stroke-width="3"/><path d="M23.54 76.165a5.819 5.819 0 0 1-5.454-4.553 1.5 1.5 0 1 1 2.91-.733 2.708 2.708 0 0 0 3.321 2.189c2.623-.614 2.093-5.892 2.087-5.945a1.5 1.5 0 0 1 2.977-.367c.366 2.963-.146 8.242-4.38 9.234a6.437 6.437 0 0 1-1.462.175z" fill="#1e4c9a"/></svg>