<svg xmlns="http://www.w3.org/2000/svg" viewBox="0 0 100 100"><title>более 336 000</title><g data-name="более 336 000"><path d="M92.22 36.597L52.073 6.344a1.773 1.773 0 0 0-2.068-.023L7.81 36.574a1.411 1.411 0 0 0-.276 2.107 1.708 1.708 0 0 0 1.296.572 1.743 1.743 0 0 0 1.017-.321l3.76-2.696V92.5a1.579 1.579 0 0 0 1.647 1.5h70.078a1.579 1.579 0 0 0 1.647-1.5V78.107h-2.938V91H17.104V33.875c0-.13.034.12 0 0L50.997 9.427l33.059 25.156c-.02.095 0-.1 0 0v43.584h2.923V36.54l3.143 2.369a1.76 1.76 0 0 0 2.318-.2 1.41 1.41 0 0 0-.22-2.112z" fill="#1e4c9a"/><path d="M99 1v98H1V1h98m1-1H0v100h100V0z" fill="#fff"/></g></svg>