<svg xmlns="http://www.w3.org/2000/svg" viewBox="0 0 100 100"><title>e-mail</title><g id="e-mail"><rect x="-0.03498" width="100" height="100" style="fill:#fff"/><path d="M66.93429,20.69361,53.5768,8.88019a5.3249,5.3249,0,0,0-7.1537,0L32.70949,20.69361" style="fill:none;stroke:#1e4c9a;stroke-linecap:round;stroke-miterlimit:10;stroke-width:3px"/><polyline points="22.757 29.166 12.5 37.872 12.5 88.582 12.5 92.5 87.5 92.5 87.5 37.872 76.17 28.256" style="fill:none;stroke:#1e4c9a;stroke-linecap:round;stroke-miterlimit:10;stroke-width:3px"/><path d="M86.83652,88.69981,54.735,62.1026a7.40513,7.40513,0,0,0-9.53076-.09606L13.09351,87.631" style="fill:none;stroke:#1e4c9a;stroke-linecap:round;stroke-miterlimit:10;stroke-width:3px"/><line x1="12.5" y1="37.87221" x2="45.20423" y2="62.00654" style="fill:none;stroke:#1e4c9a;stroke-linecap:round;stroke-miterlimit:10;stroke-width:3px"/><line x1="86.25354" y1="36.81422" x2="55.62144" y2="61.50467" style="fill:none;stroke:#1e4c9a;stroke-linecap:round;stroke-miterlimit:10;stroke-width:3px"/><polyline points="23.292 44.723 23.292 21.167 75.559 21.167 75.559 45.077" style="fill:none;stroke:#1e4c9a;stroke-linecap:round;stroke-miterlimit:10;stroke-width:3px"/><text transform="translate(35.92102 47.61966) scale(0.90331 1)" style="font-size:29.136945724487305px;fill:#1e4c9a;font-family:ArialMT, Arial">@</text></g></svg>