<svg xmlns="http://www.w3.org/2000/svg" viewBox="0 0 100 100"><title>контакты</title><g id="контакты"><rect width="100" height="100" style="fill:#fff"/><g id="_2764563448176" data-name=" 2764563448176"><path d="M25.4678,13.16862c1.39385-.79018,3.28551,2.03187,4.87848,3.838L34.727,21.97341c3.58419,4.06375-3.78331,7.22444-2.78771,13.54584,1.593,9.14344,16.12886,25.51133,24.492,31.607,5.37629,3.95087,7.66618,4.51527,12.34555,1.46747.896-.56441,1.89165-1.35458,2.7877-1.919,1.29429-1.01594,1.89165-.6773,2.88727.33864l4.28112,4.85393c4.77892,5.53121,5.47585,4.17663.79649,11.2882-1.29429,1.80611-2.38946,3.61222-5.27672,3.95087-6.27234.6773-14.43633-4.51527-19.01613-8.01462-1.79209-1.46747-8.06443-6.77292-9.65741-8.69192l-4.67936-4.741c-8.164-8.579-23.89461-28.7849-23.59593-42.105.09956-3.61222,1.29429-4.96681,3.08639-6.43427a35.48984,35.48984,0,0,1,5.07761-3.95087ZM24.97,7.6374c-2.58859.56441-9.55784,6.43427-11.15082,9.82073C8.54245,28.52057,20.3902,47.59762,26.563,55.95088L30.0476,60.579c1.79209,2.25764,6.37189,7.676,8.56224,9.93361a15.55649,15.55649,0,0,1,1.29429,1.2417c1.79209,2.03188,4.67936,4.62816,6.571,6.54715,7.16839,6.77292,25.28846,20.20587,34.3485,11.17531a39.44317,39.44317,0,0,0,4.38067-6.09563c2.489-4.06375,3.58419-7.676,0-11.62684-.79649-1.01594-1.593-1.80611-2.38946-2.822-3.88288-4.4024-7.26795-9.82073-12.14643-7.78885-1.99122.79017-4.18156,3.27358-6.27234,3.95087-3.28551,1.12882-14.33677-10.27226-17.224-13.7716-1.593-1.919-3.08639-3.838-4.67936-5.86986a48.69129,48.69129,0,0,1-4.082-6.54715c-2.78771-5.30545-1.99122-4.51528,1.39385-10.94955,2.68814-5.30545-1.09517-9.03056-3.08639-11.2882-1.69254-1.919-3.18595-3.7251-4.978-5.6441C30.34628,9.44351,28.45462,6.96011,24.97,7.63741Z" style="fill:#1e4c9a;stroke:#fff;stroke-miterlimit:10;stroke-width:1.5px"/><path d="M51.055,7.6374c-1.593.22576-2.78771.45153-3.18595,2.03188a2.54759,2.54759,0,0,0,1.593,3.38646c1.593.45153,7.66619-1.80611,16.72623,3.38646,9.95609,5.53122,18.61788,18.62553,16.328,31.83272-.39824,1.919-.09956,3.38646,1.29429,3.95087,5.47585,2.03187,3.48463-13.32007,2.58859-16.70653a36.83764,36.83764,0,0,0-2.98683-8.01462,43.19174,43.19174,0,0,0-4.38067-6.54715,36.392,36.392,0,0,0-11.34994-9.595c-4.67936-2.4834-10.653-4.4024-16.62667-3.7251Z" style="fill:#1e4c9a;stroke:#fff;stroke-miterlimit:10;stroke-width:1.5px"/><path d="M51.35363,22.76359a2.70677,2.70677,0,0,0-1.09517,4.17663c1.89166,2.70916,5.675-1.80611,13.63984,5.41833a18.60561,18.60561,0,0,1,4.978,8.24038,13.85052,13.85052,0,0,1,.39824,6.09563c-.49781,5.41833,7.66619,5.86986,4.082-7.56309A23.72265,23.72265,0,0,0,61.80752,24.5697c-2.2899-1.2417-7.76575-2.822-10.45389-1.80611Z" style="fill:#1e4c9a;stroke:#fff;stroke-miterlimit:10;stroke-width:1.5px"/></g></g></svg>