<svg xmlns="http://www.w3.org/2000/svg" viewBox="0 0 100 100"><title>уобно</title><g id="уобно"><path d="M99.35356.22394v99.5h-99.5v-99.5h99.5m.25-.25h-100v100h100v-100Z" style="fill:#fff"/><path d="M50.00439,94.54395l-.75244-.44434c-1.54053-.90723-37.73291-22.52637-38.645-48.74219C9.6709,18.44434,29.88574,7.541,49.1167,6.31055l.87793-.00293c19.19482,1.22461,39.34131,12.12109,38.606,39.03906-.74072,27.09766-36.32471,47.88867-37.83887,48.76074ZM49.89893,9.30469l-.68652.00293C40.65869,9.85742,12.521,14.08594,13.605,45.25391c.78564,22.57422,31.20117,42.54,36.416,45.79883,5.16406-3.1709,34.94336-22.46191,35.58057-45.78809C86.4541,14.07129,58.48975,9.85449,49.89893,9.30469Z" style="fill:#1e4c9a"/><circle cx="49.60356" cy="38.85562" r="14.18895" style="fill:none;stroke:#1e4c9a;stroke-linecap:round;stroke-miterlimit:10;stroke-width:3px"/></g></svg>