<svg xmlns="http://www.w3.org/2000/svg" viewBox="0 0 100 100"><title>PDF</title><path fill="#fff" d="M0 0h100v100H0z"/><path d="M81.65 92.5h-47.5a5.296 5.296 0 0 1-5.297-5.296V13.849a6.35 6.35 0 0 1 6.35-6.349H65.54L87.5 28.595V86.65a5.85 5.85 0 0 1-5.85 5.85z" fill="none" stroke="#1e4c9a" stroke-miterlimit="10" stroke-width="3"/><path d="M62.927 66.75a5.644 5.644 0 0 1-5.458 5.813H17.958A5.644 5.644 0 0 1 12.5 66.75V44.173a5.644 5.644 0 0 1 5.458-5.813h39.511a5.644 5.644 0 0 1 5.458 5.813z" fill="#fff" stroke="#1e4c9a" stroke-miterlimit="10" stroke-width="3"/><path d="M66.206 7.5v14.964a4.87 4.87 0 0 0 4.87 4.87h15.63" fill="none" stroke="#1e4c9a" stroke-miterlimit="10" stroke-width="3"/><text transform="translate(19.71 61.405)" font-size="19.306" fill="#1e4c9a" font-family="MyriadPro-Bold,Myriad Pro" font-weight="700">PDF</text></svg>