<svg xmlns="http://www.w3.org/2000/svg" viewBox="0 0 100 100"><title>сдано</title><path fill="none" stroke="#1e4c9a" stroke-linecap="round" stroke-miterlimit="10" stroke-width="2.817" d="M47.433 18.13h5.499m5.449 0h5.499m-16.447 6.205h5.499m5.449 0h5.499m-16.447 5.757h5.499m5.449 0h5.499m-16.447 6.205h5.499m5.449 0h5.499m-16.447 6.671h5.499m5.449 0h5.499m-16.447 6.205h5.499"/><path fill="none" stroke="#1e4c9a" stroke-linecap="round" stroke-miterlimit="10" stroke-width="2.868" d="M63.969 56.641h5.698m4.333 0h5.698m-15.729 6.205h5.698m4.333 0h5.698m-15.729 5.757h5.698m4.333 0h5.698m-15.729 6.206h5.698m4.333 0h5.698"/><path fill="none" stroke="#1e4c9a" stroke-linecap="round" stroke-miterlimit="10" stroke-width="2.817" d="M24.062 46.784h5.499"/><path fill="none" stroke="#1e4c9a" stroke-linecap="round" stroke-miterlimit="10" stroke-width="2.868" d="M33.994 46.784h4.466"/><path fill="none" stroke="#1e4c9a" stroke-linecap="round" stroke-miterlimit="10" stroke-width="2.817" d="M24.062 52.99h5.499"/><path fill="none" stroke="#1e4c9a" stroke-linecap="round" stroke-miterlimit="10" stroke-width="2.868" d="M33.994 52.99h4.466"/><path fill="none" stroke="#1e4c9a" stroke-linecap="round" stroke-miterlimit="10" stroke-width="2.817" d="M24.062 58.747h5.499"/><path fill="none" stroke="#1e4c9a" stroke-linecap="round" stroke-miterlimit="10" stroke-width="2.868" d="M33.994 58.747h4.466"/><path fill="none" stroke="#1e4c9a" stroke-linecap="round" stroke-miterlimit="10" stroke-width="2.817" d="M24.062 64.952h5.499"/><path fill="none" stroke="#1e4c9a" stroke-linecap="round" stroke-miterlimit="10" stroke-width="2.868" d="M33.994 64.952h4.466"/><path d="M99.75.25v99.5H.25V.25h99.5M100 0H0v100h100V0z" fill="#fff"/><path d="M20.255 37.916h17.69v55.618H17.388v-52.75a2.868 2.868 0 0 1 2.868-2.868zm39.776 9.332h23.226a2.868 2.868 0 0 1 2.867 2.867v43.419H57.031V50.248a3 3 0 0 1 3-3z" fill="none" stroke="#1e4c9a" stroke-miterlimit="10" stroke-width="2.868"/><ellipse cx="17.372" cy="82.606" rx="6.247" ry="11.195" fill="#fff" stroke="#1e4c9a" stroke-linecap="round" stroke-miterlimit="10" stroke-width="2.868"/><ellipse cx="24.979" cy="86.027" rx="4.338" ry="7.774" fill="#fff" stroke="#1e4c9a" stroke-linecap="round" stroke-miterlimit="10" stroke-width="2.868"/><path d="M73.267 44.257V11.791a2.878 2.878 0 0 0-2.75-2.99H41.21a2.878 2.878 0 0 0-2.75 2.99v78.752a2.878 2.878 0 0 0 2.75 2.99h42.165a2.878 2.878 0 0 0 2.75-2.99V50.238a2.878 2.878 0 0 0-2.75-2.99h-7.358a2.878 2.878 0 0 1-2.75-2.99z" fill="none" stroke="#1e4c9a" stroke-miterlimit="10" stroke-width="2.868"/></svg>