<svg xmlns="http://www.w3.org/2000/svg" viewBox="0 0 100 100"><title>контакты</title><path fill="#fff" d="M0 0h100v100H0z"/><g data-name="2764563448176" fill="#1e4c9a" stroke="#fff" stroke-miterlimit="10" stroke-width="1.5"><path d="M25.468 13.169c1.394-.79 3.285 2.031 4.878 3.838l4.381 4.966c3.584 4.064-3.783 7.225-2.788 13.546 1.593 9.144 16.13 25.512 24.492 31.607 5.377 3.951 7.666 4.516 12.346 1.468.896-.565 1.891-1.355 2.788-1.92 1.294-1.015 1.891-.677 2.887.34l4.28 4.853c4.78 5.532 5.477 4.177.797 11.288-1.294 1.807-2.389 3.613-5.276 3.951-6.273.678-14.437-4.515-19.016-8.014-1.793-1.468-8.065-6.773-9.658-8.692l-4.68-4.741c-8.163-8.58-23.894-28.785-23.595-42.105.1-3.612 1.294-4.967 3.086-6.434a35.49 35.49 0 0 1 5.078-3.951zm-.498-5.532c-2.589.565-9.558 6.435-11.15 9.821-5.278 11.063 6.57 30.14 12.743 38.493l3.485 4.628c1.792 2.258 6.371 7.676 8.562 9.934a15.556 15.556 0 0 1 1.294 1.241c1.792 2.032 4.68 4.628 6.571 6.547 7.169 6.773 25.289 20.206 34.349 11.176a39.443 39.443 0 0 0 4.38-6.096c2.49-4.064 3.584-7.676 0-11.627-.796-1.016-1.593-1.806-2.39-2.822-3.882-4.402-7.267-9.82-12.146-7.789-1.99.79-4.181 3.274-6.272 3.951-3.285 1.13-14.337-10.272-17.224-13.771-1.593-1.92-3.086-3.838-4.68-5.87a48.691 48.691 0 0 1-4.081-6.547c-2.788-5.306-1.992-4.516 1.394-10.95 2.688-5.305-1.096-9.03-3.087-11.288-1.692-1.919-3.186-3.725-4.978-5.644-1.394-1.58-3.285-4.064-6.77-3.387zm26.085 0c-1.593.226-2.788.452-3.186 2.032a2.548 2.548 0 0 0 1.593 3.387c1.593.451 7.666-1.806 16.726 3.386 9.956 5.531 18.618 18.626 16.328 31.833-.398 1.919-.1 3.386 1.295 3.95 5.475 2.033 3.484-13.32 2.588-16.706a36.838 36.838 0 0 0-2.987-8.014 43.192 43.192 0 0 0-4.38-6.548 36.392 36.392 0 0 0-11.35-9.595C63.002 8.88 57.029 6.96 51.055 7.637z"/><path d="M51.354 22.764a2.707 2.707 0 0 0-1.096 4.176c1.892 2.71 5.675-1.806 13.64 5.419a18.606 18.606 0 0 1 4.978 8.24 13.85 13.85 0 0 1 .399 6.096c-.498 5.418 7.666 5.87 4.082-7.564a23.723 23.723 0 0 0-11.55-14.561c-2.29-1.242-7.765-2.822-10.453-1.806z"/></g></svg>