<svg width="70" height="70" viewBox="0 0 70 70" fill="none" xmlns="http://www.w3.org/2000/svg">
<path d="M35 0C44.7674 0 53.5174 3.86628 59.8256 10.1744C66.1337 16.686 70 25.436 70 35C70 44.7674 66.1337 53.5174 59.8256 59.8256C53.5174 66.1337 44.7674 70 35 70C25.436 70 16.686 66.1337 10.1744 59.8256C3.86628 53.5174 0 44.7674 0 35C0 25.436 3.86628 16.686 10.1744 10.1744C16.686 3.86628 25.436 0 35 0ZM56.9767 13.0233C54.1008 10.1193 50.6779 7.81411 46.9057 6.24092C43.1336 4.66772 39.087 3.85772 35 3.85772C30.913 3.85772 26.8664 4.66772 23.0943 6.24092C19.3221 7.81411 15.8992 10.1193 13.0233 13.0233C10.1193 15.8992 7.81411 19.3221 6.24092 23.0943C4.66772 26.8664 3.85772 30.913 3.85772 35C3.85772 39.087 4.66772 43.1336 6.24092 46.9057C7.81411 50.6779 10.1193 54.1008 13.0233 56.9767C15.8992 59.8807 19.3221 62.1859 23.0943 63.7591C26.8664 65.3323 30.913 66.1423 35 66.1423C39.087 66.1423 43.1336 65.3323 46.9057 63.7591C50.6779 62.1859 54.1008 59.8807 56.9767 56.9767C59.8807 54.1008 62.1859 50.6779 63.7591 46.9057C65.3323 43.1336 66.1423 39.087 66.1423 35C66.1423 30.913 65.3323 26.8664 63.7591 23.0943C62.1859 19.3221 59.8807 15.8992 56.9767 13.0233Z" fill="#1E4C9A"/>
<path d="M19.7636 23.8081H49.4659L36.6496 35.2442C35.4287 36.2616 33.8008 36.2616 32.5798 35.2442L19.7636 23.8081Z" fill="#1E4C9A"/>
<path d="M52.2965 44.728V24.3478L41.0884 34.5236L52.2965 44.728Z" fill="#1E4C9A"/>
<path d="M39.2701 36.1745L38.2775 37.0756C37.2601 38.093 35.8356 38.5 34.6147 38.5C33.3938 38.5 31.9694 38.093 30.9519 37.0756L30.3414 36.5213L19.7384 45.9884H50.2616L39.2701 36.1745Z" fill="#1E4C9A"/>
<path d="M28.5268 34.8739L17.907 44.5427V25.2321L28.5268 34.8739Z" fill="#1E4C9A"/>
</svg>
