<svg xmlns="http://www.w3.org/2000/svg" width="70" height="70" viewBox="0 0 3.9 3.9" shape-rendering="geometricPrecision" text-rendering="geometricPrecision" image-rendering="optimizeQuality" fill-rule="evenodd" clip-rule="evenodd"><defs><style>.fil0{fill:transparent}.fil1,.fil2{fill:#1e4c9a}.fil1{fill-rule:nonzero}</style></defs><g id="Слой_x0020_1"><circle class="fil0" cx="1.95" cy="1.95" r="1.84"/><path class="fil1" d="M1.95 0c.54 0 1.02.22 1.38.57.35.35.57.84.57 1.38 0 .54-.22 1.02-.57 1.38-.36.35-.84.57-1.38.57-.54 0-1.03-.22-1.38-.57C.22 2.97 0 2.49 0 1.95A1.95 1.95 0 0 1 1.95 0zm1.22.72c-.31-.31-.74-.5-1.22-.5S1.04.41.72.72c-.31.32-.5.75-.5 1.23s.19.91.5 1.22a1.723 1.723 0 0 0 2.45 0c.32-.31.51-.74.51-1.22s-.19-.91-.51-1.23z"/><path class="fil2" d="M1.59 1.47c.02 0 .07 0 .1.05.03.03.03.08.03.13.01.07.01.22-.03.27-.04.06-.11-.02-.14-.06-.02-.03-.05-.06-.07-.09-.01-.01-.02-.03-.03-.04l-.11-.21c0-.01-.01-.04-.02-.05-.02-.02-.03-.02-.05-.03-.03-.01-.12 0-.16 0H.96c-.03 0-.05 0-.07.01-.02.02-.01.04 0 .06 0 .02.09.18.1.21.01.01.02.03.03.05l.12.19c.02.04.05.08.08.11.03.06.12.15.16.2l.06.05.01.01c.01 0 .01.01.01.01.05.03.09.06.15.09.05.03.11.04.17.06l.07.01c.04 0 .2.01.23 0 .01-.01.03-.01.04-.03.01-.04 0-.04.01-.07 0-.06.02-.14.08-.16.02 0 .05.01.06.02.03.02.06.05.08.08.06.06.1.1.17.14.02.01.04.02.06.02.02.01.05 0 .07 0h.24c.04 0 .1 0 .12-.03.01-.02.01-.04 0-.06 0-.01-.01-.02-.01-.03-.02-.03-.05-.06-.07-.08-.01-.01-.01-.02-.02-.03-.02-.01-.03-.02-.04-.03l-.04-.04-.05-.04a.5.5 0 0 1-.08-.07c-.04-.04-.04-.08-.01-.13.03-.04.1-.12.13-.16.01-.01.02-.02.03-.04l.02-.02.03-.04a.36.36 0 0 0 .07-.1c.01-.01.03-.06.04-.07 0-.01.01-.02.01-.03 0-.04-.03-.05-.07-.06h-.38c-.03 0-.04.01-.05.03l-.05.11c-.02.03-.04.07-.05.1-.02.03-.05.07-.07.09-.02.04-.04.06-.06.09-.02.02-.06.07-.09.07-.02.01-.04 0-.05-.01-.01-.02-.02-.04-.02-.06-.01-.08 0-.21 0-.3v-.08c0-.01-.01-.02-.01-.03 0-.01-.01-.01-.02-.02-.04-.05-.29-.04-.34-.04-.02 0-.03.01-.04.01-.04 0-.13.02-.13.07z"/></g></svg>