<?xml version="1.0" encoding="UTF-8"?>
<!DOCTYPE svg PUBLIC "-//W3C//DTD SVG 1.1//EN" "http://www.w3.org/Graphics/SVG/1.1/DTD/svg11.dtd">
<!-- Creator: CorelDRAW 2020 (64-Bit) -->
<svg xmlns="http://www.w3.org/2000/svg" xml:space="preserve" width="18.5208mm" height="18.5208mm" version="1.1" style="shape-rendering:geometricPrecision; text-rendering:geometricPrecision; image-rendering:optimizeQuality; fill-rule:evenodd; clip-rule:evenodd"
viewBox="0 0 1852.08 1852.08"
 xmlns:xlink="http://www.w3.org/1999/xlink"
 xmlns:xodm="http://www.corel.com/coreldraw/odm/2003">
 <defs>
  <style type="text/css">
   <![CDATA[
    .str0 {stroke:#1E4C9A;stroke-width:19.98;stroke-miterlimit:22.9256}
    .fil0 {fill:#1E4C9A}
    .fil1 {fill:#1E4C9A;fill-rule:nonzero}
   ]]>
  </style>
 </defs>
 <g id="Слой_x0020_1">
  <metadata id="CorelCorpID_0Corel-Layer"/>
  <path class="fil0 str0" d="M1198.42 1303.91c-15.63,0 -31.26,-2.6 -41.68,-13.02l-195.37 -143.27c0,-2.6 -5.21,-5.21 -7.81,-5.21l-15.63 15.63c-5.21,5.21 -10.42,10.42 -15.63,15.63 -2.6,2.6 -5.21,5.21 -10.42,7.81l-39.07 39.07c-15.63,15.63 -36.47,36.47 -59.91,36.47l2.6 -41.68c0,-5.21 0,-7.81 0,-13.02 0,-5.21 2.6,-10.42 2.6,-15.63 0,-2.6 0,-7.81 0,-13.02 2.6,-5.21 2.6,-10.42 2.6,-13.02l2.6 -28.65c0,-5.21 0,-10.42 0,-15.63l5.21 -54.7c2.6,-26.05 0,-13.02 15.63,-31.26 13.02,-10.42 28.65,-23.44 41.68,-36.47l57.31 -52.1c2.6,-2.6 2.6,-2.6 5.21,-5.21 0,0 2.6,-2.6 2.6,-2.6l96.38 -88.57c7.81,-5.21 13.02,-13.02 20.84,-18.23l65.12 -57.31c2.6,-2.6 2.6,-5.21 5.21,-7.81 5.21,-2.6 5.21,-5.21 10.42,-7.81l62.52 -57.31c5.21,-5.21 7.81,-7.81 5.21,-15.63 -13.02,-5.21 -26.05,2.6 -33.86,10.42 -36.47,23.44 -72.94,46.89 -109.41,67.73 -2.6,2.6 -5.21,2.6 -7.81,5.21 -23.44,15.63 -46.89,31.26 -70.33,44.28l-78.15 49.49c-26.05,15.63 -52.1,31.26 -78.15,49.49l-125.04 78.15c-5.21,0 -182.34,-54.7 -200.58,-59.91l-15.63 -5.21c-7.81,-2.6 -20.84,-10.42 -20.84,-20.84 0,-13.02 5.21,-18.23 15.63,-26.05 15.63,-10.42 59.91,-26.05 78.15,-33.86 10.42,-2.6 18.23,-7.81 26.05,-10.42 26.05,-7.81 57.31,-20.84 83.36,-31.26l216.21 -83.36c10.42,-5.21 18.23,-7.81 28.65,-10.42l80.75 -31.26c72.94,-31.26 145.87,-57.31 218.81,-85.96l80.75 -31.26c20.84,-7.81 41.68,-15.63 59.91,5.21 18.23,23.44 7.81,57.31 0,80.75l-7.81 46.89c-10.42,52.1 -23.44,106.8 -33.86,158.9 -2.6,7.81 -5.21,15.63 -5.21,23.44l-15.63 70.33c-13.02,59.91 -26.05,119.83 -39.07,179.74 -7.81,39.07 -15.63,78.15 -23.44,114.62 -5.21,23.44 -10.42,67.73 -41.68,67.73l0.01 -0.02z"/>
  <path class="fil1" d="M924.74 0c255.28,0 487.12,104.2 653.83,270.91 169.32,166.71 273.51,398.55 273.51,653.83 0,255.28 -104.2,487.12 -273.51,653.83 -166.71,169.32 -398.55,273.51 -653.83,273.51 -255.28,0 -487.12,-104.2 -653.83,-273.51 -166.71,-166.71 -270.91,-398.55 -270.91,-653.83 0,-255.28 104.2,-487.12 270.91,-653.83 166.71,-166.71 398.55,-270.91 653.83,-270.91zm580.89 343.85c-148.48,-148.48 -354.27,-239.65 -580.89,-239.65 -226.63,0 -432.41,91.17 -580.89,239.65 -148.48,148.48 -239.65,354.27 -239.65,580.89 0,226.63 91.17,432.41 239.65,580.89 148.48,151.08 354.27,242.26 580.89,242.26 226.63,0 432.41,-91.17 580.89,-242.26 151.08,-148.48 242.26,-354.27 242.26,-580.89 0,-226.63 -91.17,-432.41 -242.26,-580.89z"/>
 </g>
</svg>
