<svg xmlns="http://www.w3.org/2000/svg" width="70" height="70" viewBox="0 0 7.19 7.19" shape-rendering="geometricPrecision" text-rendering="geometricPrecision" image-rendering="optimizeQuality" fill-rule="evenodd" clip-rule="evenodd"><defs><style>.fil0,.fil3{fill:transparent}.fil1,.fil2{fill:#1e4c9a}.fil1{fill-rule:nonzero}</style></defs><g id="Слой_x0020_1"><g id="_1875399788528"><path class="fil0" d="M3.19 2.51v.58H2.6v.67l.59.01v1.74h.7V3.76h.59l.08-.68h-.67c-.01-.09 0-.26 0-.36 0-.12 0-.22.06-.3.1-.14.43-.1.64-.1 0-.07 0-.58-.01-.61-.48-.05-1.01-.09-1.27.36-.06.1-.12.3-.12.44z"/><path class="fil0" d="M2.6 3.09h.59v-.58c-.02.03-.01.49-.01.57-.03 0-.55-.01-.58.01z"/></g><circle class="fil0" cx="3.6" cy="3.6" r="3.39"/><path class="fil1" d="M3.6 0a3.583 3.583 0 0 1 3.59 3.6A3.583 3.583 0 0 1 3.6 7.19 3.589 3.589 0 0 1 0 3.6 3.589 3.589 0 0 1 3.6 0zm2.25 1.34A3.15 3.15 0 0 0 3.6.4c-.89 0-1.69.36-2.26.94C.76 1.91.4 2.71.4 3.6c0 .88.36 1.68.94 2.25.57.58 1.37.94 2.26.94.88 0 1.68-.36 2.25-.94.58-.57.94-1.37.94-2.25 0-.89-.36-1.69-.94-2.26z"/><g id="_1875399789392"><path class="fil2" d="M3.23 3.04l.95.56-.95.55V3.04zm-1.48.45v.24c.01 0 .02.29.02.33.01.1.02.21.04.31.02.12.04.18.09.26.04.06.11.12.2.16.14.05.46.07.62.07.11.01.22.01.34.02h.78c.01 0 .32 0 .36-.01.2 0 .48-.01.68-.04.12-.01.2-.03.28-.08a.45.45 0 0 0 .17-.19c.09-.18.11-.78.11-.99-.01-.23-.01-.46-.05-.69-.03-.21-.07-.35-.26-.46-.13-.07-.46-.08-.64-.09-.11-.01-.23-.01-.35-.02h-.79c-.01 0-.3 0-.34.01-.2 0-.46.01-.66.03-.2.02-.35.05-.46.23-.09.14-.11.42-.12.58l-.02.33z"/><path class="fil3" d="M3.23 4.15l.95-.55-.95-.56z"/></g></g></svg>