<?xml version="1.0" encoding="UTF-8"?>
<!DOCTYPE svg PUBLIC "-//W3C//DTD SVG 1.1//EN" "http://www.w3.org/Graphics/SVG/1.1/DTD/svg11.dtd">
<!-- Creator: CorelDRAW 2017 -->
<svg xmlns="http://www.w3.org/2000/svg" xml:space="preserve" width="967px" height="210px" version="1.1" style="shape-rendering:geometricPrecision; text-rendering:geometricPrecision; image-rendering:optimizeQuality; fill-rule:evenodd; clip-rule:evenodd"
viewBox="0 0 953.94 206.93"
 xmlns:xlink="http://www.w3.org/1999/xlink">
 <defs>
  <style type="text/css">
   <![CDATA[
    .str0 {stroke:#1E4C9A;stroke-width:0.88;stroke-miterlimit:22.9256}
    .fil2 {fill:#1E4C9A}
    .fil1 {fill:#1E4C9A;fill-rule:nonzero}
    .fil0 {fill:#FFDC43;fill-rule:nonzero}
   ]]>
  </style>
 </defs>
 <g id="Слой_x0020_1">
  <metadata id="CorelCorpID_0Corel-Layer"/>
  <g id="_1441862203472">
   <g id="_2194027108928">
    <g>
     <path class="fil0" d="M924.47 137.48l0 60.87 -0.71 0 0 -60.87 0.35 -0.36 0.36 0.36zm-0.71 0l0 -0.36 0.35 0 -0.35 0.36zm2.4 0.36l-2.05 0 0 -0.72 2.05 0 0.36 0.36 -0.36 0.36zm0 -0.72l0.36 0 0 0.36 -0.36 -0.36zm-0.35 62.86l0 -62.5 0.71 0 0 62.5 -0.36 0.35 -0.35 -0.35zm0.71 0l0 0.35 -0.36 0 0.36 -0.35zm-275.73 -0.36l275.37 0 0 0.71 -275.37 0 -0.35 -0.35 0.35 -0.36zm0 0.71l-0.35 0 0 -0.35 0.35 0.35zm0.36 -62.85l0 62.5 -0.71 0 0 -62.5 0.35 -0.36 0.36 0.36zm-0.71 0l0 -0.36 0.35 0 -0.35 0.36zm2.41 0.36l-2.06 0 0 -0.72 2.06 0 0.35 0.36 -0.35 0.36zm0 -0.72l0.35 0 0 0.36 -0.35 -0.36zm-0.36 61.23l0 -60.87 0.71 0 0 60.87 -0.35 0.36 -0.36 -0.36zm0.36 0.36l-0.36 0 0 -0.36 0.36 0.36zm271.26 0l-271.26 0 0 -0.71 271.26 0 0.36 0.35 -0.36 0.36zm0.36 -0.36l0 0.36 -0.36 0 0.36 -0.36zm0 -189.77l0 13.99 -0.71 0 0 -13.99 0.35 -0.37 0.36 0.37zm-0.36 -0.37l0.36 0 0 0.37 -0.36 -0.37zm-271.26 0l271.26 0 0 0.72 -271.26 0 -0.36 -0.35 0.36 -0.37zm-0.36 0.37l0 -0.37 0.36 0 -0.36 0.37zm0 13.99l0 -13.99 0.71 0 0 13.99 -0.35 0.36 -0.36 -0.36zm0.71 0l0 0.36 -0.35 0 0.35 -0.36zm-2.41 -0.36l2.06 0 0 0.72 -2.06 0 -0.35 -0.36 0.35 -0.36zm0 0.72l-0.35 0 0 -0.36 0.35 0.36zm0.36 -15.98l0 15.62 -0.71 0 0 -15.62 0.35 -0.36 0.36 0.36zm-0.71 0l0 -0.36 0.35 0 -0.35 0.36zm275.72 0.36l-275.37 0 0 -0.72 275.37 0 0.36 0.36 -0.36 0.36zm0 -0.72l0.36 0 0 0.36 -0.36 -0.36zm-0.35 1.17l0 -0.81 0.71 0 0 0.81 0 0 -0.71 0zm0 14.81l0 -14.81 0.71 0 0 14.81 -0.36 0.36 -0.35 -0.36zm0.71 0l0 0.36 -0.36 0 0.36 -0.36zm-2.41 -0.36l2.05 0 0 0.72 -2.05 0 -0.35 -0.36 0.35 -0.36zm0 0.72l-0.35 0 0 -0.36 0.35 0.36z"/>
     <path id="_1" class="fil0" d="M924.11 198.35l0 -60.87 2.05 0 0 62.5 -275.37 0 0 -62.5 2.06 0 0 60.87 271.26 0zm0 -175.78l0 -13.99 -271.26 0 0 13.99 -2.06 0 0 -15.62 275.37 0 0 0.81 0 14.81 -2.05 0z"/>
    </g>
    <g id="_2194027108352">
     <path class="fil1" d="M669.49 163.69l-0.34 -35.42 6.54 -0.06 0.15 15.33 10.83 -15.44 7.86 -0.08 -12.79 16.12 13.12 19.31 -7.85 0.07 -11.15 -17.51 0.17 17.62 -6.54 0.06zm26.74 -0.26l14.36 -35.56 5.13 -0.05 15.2 35.28 -7.2 0.07 -3.92 -9.1 -12.53 0.12 -3.85 9.18 -7.19 0.06 0 0zm12.69 -14.96l8.61 -0.08 -4.23 -11.01 -0.18 -1.32 -0.13 1.32 -4.07 11.09zm50.08 14.35l-6.55 0.07 -0.14 -15.04 -0.44 0.62c-0.69,0.95 -1.63,1.7 -2.83,2.24 -1.19,0.55 -2.52,0.83 -4,0.85 -3.3,0.03 -5.96,-1.11 -7.98,-3.4 -0.95,-1.19 -1.65,-2.6 -2.08,-4.24 -0.44,-1.62 -0.66,-3.66 -0.69,-6.09l-0.09 -10.19 6.54 -0.06 0.09 10.19c0.02,1.47 0.06,2.48 0.14,3.04 0.08,0.56 0.27,1.13 0.57,1.75 1.02,2 2.74,2.99 5.16,2.97 0.98,-0.01 1.86,-0.24 2.67,-0.69 0.82,-0.45 1.47,-1.08 1.95,-1.87 0.37,-0.62 0.61,-1.27 0.73,-1.99 0.12,-0.73 0.18,-1.82 0.16,-3.33l-0.09 -10.18 6.54 -0.06 0.34 35.41 0 0zm6.81 -0.06l-0.35 -35.42 18.99 -0.19 0.05 6.36 -12.43 0.12 0.08 8.17 11.88 -0.11 0.06 6.36 -11.89 0.11 0.09 8.18 12.43 -0.12 0.06 6.36 -18.97 0.18 0 0zm50.04 -10.12l7.59 -0.08c-0.63,1.33 -1.17,2.34 -1.63,3.03 -0.44,0.68 -1.04,1.42 -1.79,2.21 -1.14,1.13 -2.41,2.09 -3.8,2.9 -1.38,0.81 -2.85,1.43 -4.39,1.85 -1.54,0.43 -3.11,0.65 -4.69,0.67 -3.27,0.03 -6.32,-0.78 -9.17,-2.42 -2.83,-1.65 -5.1,-3.9 -6.77,-6.73 -1.69,-2.85 -2.53,-5.92 -2.57,-9.24 -0.03,-3.3 0.76,-6.37 2.38,-9.21 1.61,-2.84 3.82,-5.09 6.61,-6.78 2.78,-1.67 5.8,-2.53 9.05,-2.56 2.45,-0.03 4.83,0.43 7.14,1.37 2.3,0.93 4.32,2.26 6.05,3.96 0.74,0.69 1.36,1.41 1.85,2.13 0.49,0.73 1.09,1.77 1.78,3.14l-7.44 0.07c-0.79,-0.83 -1.48,-1.47 -2.07,-1.91 -0.57,-0.45 -1.28,-0.85 -2.09,-1.23 -1.72,-0.8 -3.43,-1.19 -5.15,-1.17 -2.07,0.02 -4,0.59 -5.78,1.7 -1.78,1.12 -3.18,2.61 -4.21,4.47 -1.03,1.86 -1.55,3.88 -1.52,6.05 0.02,2.15 0.58,4.14 1.66,6 1.09,1.85 2.53,3.32 4.35,4.4 1.8,1.08 3.74,1.63 5.79,1.6 1.49,-0.01 2.95,-0.33 4.36,-0.95 0.88,-0.4 1.62,-0.82 2.22,-1.26 0.61,-0.45 1.35,-1.12 2.24,-2.01l0 0zm15.69 9.49l-0.28 -29.08 -6.49 0.07 -0.06 -6.36 19.63 -0.19 0.06 6.36 -6.59 0.06 0.28 29.07 -6.55 0.07 0 0zm16.76 -0.16l-0.33 -35.43 6.39 -0.07c2.31,-0.01 4.07,0.02 5.3,0.11 1.6,0.16 2.98,0.55 4.12,1.16 1.52,0.74 2.73,1.83 3.66,3.28 0.92,1.45 1.39,3 1.4,4.64 0.02,1.65 -0.36,3.08 -1.12,4.3 -0.78,1.22 -1.83,2.05 -3.18,2.51 1.3,0.21 2.44,0.7 3.42,1.47 0.98,0.76 1.75,1.75 2.29,2.97 0.56,1.21 0.84,2.55 0.86,4.02 0.01,1.68 -0.34,3.27 -1.07,4.75 -0.74,1.48 -1.78,2.73 -3.13,3.73 -2.13,1.6 -5.41,2.43 -9.79,2.47l-8.82 0.09 0 0zm6.49 -6.42l2.72 -0.03c4.73,-0.05 7.08,-1.65 7.05,-4.81 -0.01,-0.98 -0.29,-1.8 -0.82,-2.43 -0.45,-0.47 -0.96,-0.87 -1.52,-1.18 -0.58,-0.29 -1.18,-0.46 -1.79,-0.55 -0.61,-0.09 -1.57,-0.13 -2.86,-0.12l-2.87 0.03 0.09 9.09 0 0zm-0.15 -15.45l1.21 -0.01c2.16,-0.02 3.65,-0.22 4.48,-0.61 0.57,-0.25 1.04,-0.69 1.42,-1.3 0.37,-0.62 0.57,-1.26 0.56,-1.95 -0.01,-0.95 -0.34,-1.73 -0.98,-2.3 -0.33,-0.32 -0.74,-0.6 -1.27,-0.81 -0.51,-0.19 -1.01,-0.28 -1.51,-0.27 -0.16,-0.04 -1.11,-0.04 -2.82,-0.03l-1.16 0.01 0.07 7.27 0 0zm18.48 21.63l14.36 -35.57 5.13 -0.04 15.2 35.27 -7.2 0.07 -3.91 -9.1 -12.54 0.12 -3.84 9.18 -7.2 0.07 0 0zm12.69 -14.97l8.62 -0.08 -4.23 -11.02 -0.18 -1.3 -0.14 1.31 -4.07 11.09z"/>
     <g>
      <path class="fil1" d="M695.52 99.76l-0.52 -54.02 27.41 -0.27 0.09 9.69 -17.43 0.17 0.43 44.34 -9.98 0.09 0 0zm30.55 -0.29l21.9 -54.23 7.82 -0.08 23.18 53.8 -10.98 0.1 -5.96 -13.87 -19.12 0.19 -5.87 13.98 -10.97 0.11 0 0zm19.35 -22.82l13.14 -0.13 -6.45 -16.79 -0.27 -2 -0.21 2.01 -6.21 16.91 0 0zm49.05 22.16l-9.99 0.1 -0.51 -54.04 12.67 -0.12c3.5,-0.03 6.11,0.05 7.83,0.22 2.38,0.23 4.63,1.06 6.78,2.48 2.23,1.48 4,3.43 5.29,5.85 1.29,2.42 1.95,5.02 1.98,7.79 0.03,2.72 -0.52,5.3 -1.65,7.75 -1.13,2.45 -2.68,4.45 -4.67,6.01 -1.03,0.87 -2.32,1.6 -3.83,2.21 -2.15,0.77 -6.21,1.2 -12.19,1.26l-1.91 0.01 0.2 20.48 0 0zm-0.29 -30.17l1.76 -0.02 1.07 0 0.92 -0.02c2.69,-0.03 4.6,-0.24 5.77,-0.66 1.47,-0.47 2.65,-1.32 3.53,-2.55 0.89,-1.21 1.32,-2.58 1.31,-4.13 -0.02,-1.57 -0.5,-2.93 -1.46,-4.08 -0.94,-1.15 -2.23,-1.93 -3.84,-2.35 -1.28,-0.28 -3.1,-0.41 -5.45,-0.39l-0.85 0 -1.13 0.02 -1.77 0.02 0.14 14.16 0 0zm26.7 29.91l21.9 -54.23 7.81 -0.08 23.19 53.8 -10.99 0.11 -5.96 -13.87 -19.12 0.18 -5.87 13.99 -10.96 0.1 0 0zm19.34 -22.81l13.14 -0.13 -6.45 -16.79 -0.27 -2 -0.21 2 -6.21 16.92 0 0zm39.07 22.25l-0.52 -54.01 9.98 -0.1 0.21 21.61 19.19 -0.19 -0.21 -21.61 10.06 -0.09 0.52 54.02 -10.06 0.08 -0.22 -22.62 -19.19 0.18 0.22 22.63 -9.98 0.1zm55.04 -0.53l-0.43 -44.33 -9.9 0.1 -0.09 -9.71 29.95 -0.29 0.08 9.7 -10.05 0.1 0.43 44.34 -9.99 0.09 0 0z"/>
      <path class="fil0" d="M655.04 76.13l14.84 -22.97c0,0 2.26,-4.36 6.93,-5.66 4.69,-1.29 7.75,-0.65 7.59,0.65 -0.17,1.3 -20.65,31.86 -23.23,35.26 -2.58,3.39 -7.1,10.34 -15.01,11.8 -7.9,1.46 -11.61,-0.65 -14.99,-5.01 -3.4,-4.37 -7.59,-11.33 -7.59,-11.33 0,0 -1.78,-2.9 0.97,-4.84 2.74,-1.95 7.58,-4.05 9.52,-3.4 1.93,0.64 9.67,13.42 10.48,14.72 0.81,1.29 2.91,2.42 4.68,-0.17 1.77,-2.58 5.81,-9.05 5.81,-9.05l0 0z"/>
     </g>
    </g>
    <rect class="fil2 str0" x="551.04" y="0.44" width="3.92" height="206.05"/>
   </g>
   <g id="Logo_ВЫБОР.cdr">
    <path class="fil2" d="M208.49 67.69l31.9 0 0 93.39 -31.9 0 0 -93.39zm-54.13 -42.21l17.98 -6.75 28.31 6.75 0 125.92 -28.31 9.23 -17.98 -9.23 0 -125.92zm-149.83 21.08l146.65 0 0.26 -22.67 20.62 -7.94 31.46 8.09 0.18 22.38 224.8 0.14c-118.34,-10.7 -141.7,-17.69 -188.58,-28.85l-65.05 -17.1c-75.22,31.03 -99.27,34.33 -170.34,45.95l0 0zm168.78 96.25l23.82 -6.27 0 8.55 -23.82 6.26 0 -8.54zm0.07 -16.5l23.83 -5.21 0 8.55 -23.83 5.2 0 -8.54zm-0.07 -16.65l23.82 -3.12 0 8.54 -23.82 3.12 0 -8.54zm-0.15 -16.72l23.83 -1.56 0 8.54 -23.83 1.56 0 -8.54zm0.15 -16.72l23.82 0 0 8.54 -23.82 0 0 -8.54zm-0.27 -50.09l23.83 4.33 0 8.54 -23.83 -4.33 0 -8.54zm0.2 16.94l23.83 2.91 0 8.54 -23.83 -2.91 0 -8.54zm0 16.36l23.83 2.22 0 8.54 -23.83 -2.22 0 -8.54zm-122.69 52.62c0.01,0.05 3.09,0.19 6.75,1.82 5.72,2.53 12.95,8.37 12.95,20.67 0,20.19 -10.2,27.53 -23.48,26.9 -2.08,-0.1 -6.21,0.06 -6.21,-0.11l-0.14 -51.73 0 -42.12 8.51 0.12c6.53,0.1 17.82,6.5 17.82,20.42 0,12.29 -7.14,20.24 -16.42,21.58l0.22 2.45zm-10.13 -2.45l2.1 0 -2 0 -0.1 0zm-37.09 -41.91l31.9 0 0 93.39 -31.9 0 0 -93.39zm72.56 0l31.9 0 0 93.39 -31.9 0 0 -93.39zm45.11 37.18c17.9,0.06 26.81,12.97 26.81,28.88 0,15.9 -11.01,28.04 -26.88,28.04 -2.48,0 -7.4,0.42 -7.4,-0.13l-0.13 -56.81 7.6 0.02zm252.61 -37.18l31.89 0 0 93.39 -31.89 0 0 -93.39zm-42.67 46.75l0 48.77c20.03,0 36.87,-17.85 37.61,-48.77 0.73,-30.91 -17.58,-48.77 -37.61,-48.77l0 48.77zm-6.16 0l0 48.77c-20.03,0 -36.87,-17.85 -37.6,-48.77 -0.74,-30.91 17.57,-48.77 37.6,-48.77l0 48.77zm-70.56 -10.04c17.9,0.06 26.81,12.97 26.81,28.88 0,15.9 -11.02,28.03 -26.89,28.03 -2.47,0 -7.39,0.42 -7.39,-0.12l-0.13 -56.82 7.6 0.03zm164.87 -37.41c17.89,0.05 26.8,12.97 26.8,28.87 0,15.9 -11.01,28.04 -26.87,28.04 -2.48,0 -7.4,0.42 -7.4,-0.13l-0.14 -56.81 7.61 0.03zm-144.23 0.48l-29.99 0 29.99 35.42 0 -35.42z"/>
    <path class="fil2" d="M439.99 183.86l-3.51 0c-1.78,0 -2.95,0.04 -3.51,0.12 -0.57,0.09 -1.05,0.36 -1.45,0.82 -0.41,0.47 -0.61,1.07 -0.61,1.83 0,0.78 0.2,1.4 0.59,1.86 0.39,0.47 0.88,0.75 1.48,0.86 0.61,0.12 1.83,0.17 3.68,0.17l3.33 0 0 -5.66zm0 18.53l0 -9.3 -0.92 0c-1.41,0 -2.41,0.21 -2.99,0.63 -0.58,0.43 -1.58,1.7 -2.98,3.82l-3.26 4.85 -5.36 0 2.71 -4.35c1.07,-1.72 1.93,-2.93 2.57,-3.63 0.63,-0.69 1.44,-1.31 2.4,-1.86 -2.08,-0.32 -3.58,-1.05 -4.5,-2.17 -0.92,-1.12 -1.38,-2.46 -1.38,-4.02 0,-1.37 0.34,-2.57 1.02,-3.62 0.69,-1.05 1.59,-1.75 2.71,-2.11 1.11,-0.36 2.79,-0.54 5.01,-0.54l9.46 0 0 22.3 -4.49 0zm-35.6 -22.3l4.21 0 0 14.85 9.02 -14.85 4.47 0 0 22.3 -4.2 0 0 -14.56 -9.01 14.56 -4.49 0 0 -22.3zm-22.49 22.3l0 -22.3 4.49 0 0 8.78 8.8 0 0 -8.78 4.5 0 0 22.3 -4.5 0 0 -9.75 -8.8 0 0 9.75 -4.49 0zm-10.67 -8.82l-3.06 -8.28 -3.01 8.28 6.07 0zm8.28 8.82l-4.89 0 -1.95 -5.06 -8.9 0 -1.83 5.06 -4.77 0 8.67 -22.3 4.76 0 8.91 22.3zm-42.36 -22.3l17.7 0 0 22.3 -4.49 0 0 -18.55 -8.72 0 0 18.55 -4.49 0 0 -22.3zm-26.01 22.3l0 -22.3 6.72 0 4.04 15.22 3.99 -15.22 6.74 0 0 22.3 -4.17 0 0 -17.56 -4.42 17.56 -4.33 0 -4.4 -17.56 0 17.56 -4.17 0zm-20.4 -11.16c0,2.52 0.59,4.44 1.74,5.74 1.17,1.3 2.65,1.96 4.44,1.96 1.79,0 3.25,-0.65 4.41,-1.95 1.14,-1.29 1.72,-3.23 1.72,-5.81 0,-2.56 -0.56,-4.47 -1.68,-5.73 -1.11,-1.25 -2.6,-1.88 -4.45,-1.88 -1.85,0 -3.35,0.64 -4.48,1.91 -1.13,1.27 -1.7,3.19 -1.7,5.76l0 0zm-4.63 0.15c0,-2.28 0.34,-4.18 1.02,-5.73 0.5,-1.13 1.2,-2.15 2.07,-3.05 0.87,-0.9 1.83,-1.58 2.88,-2.01 1.39,-0.59 2.98,-0.88 4.79,-0.88 3.28,0 5.9,1.02 7.87,3.06 1.97,2.03 2.95,4.87 2.95,8.5 0.01,3.6 -0.97,6.42 -2.93,8.45 -1.95,2.04 -4.56,3.05 -7.83,3.05 -3.31,0 -5.93,-1.01 -7.89,-3.03 -1.95,-2.02 -2.93,-4.82 -2.93,-8.36l0 0zm-17.99 -11.29l4.49 0 0 9.49c1.01,-0.09 1.69,-0.36 2.04,-0.77 0.36,-0.41 0.9,-1.57 1.64,-3.47 0.93,-2.42 1.87,-3.92 2.8,-4.51 0.94,-0.59 2.44,-0.88 4.52,-0.88 0.1,0 0.31,0 0.64,-0.02l0 3.34 -0.63 -0.02c-0.91,0 -1.59,0.11 -2.01,0.34 -0.43,0.23 -0.77,0.58 -1.04,1.05 -0.26,0.47 -0.65,1.42 -1.17,2.87 -0.27,0.77 -0.57,1.42 -0.88,1.94 -0.32,0.51 -0.89,1 -1.7,1.46 1,0.28 1.83,0.85 2.48,1.72 0.66,0.86 1.37,2.08 2.15,3.64l3.03 6.12 -5.27 0 -2.66 -5.76c-0.04,-0.09 -0.12,-0.24 -0.26,-0.47 -0.05,-0.09 -0.24,-0.43 -0.56,-1.05 -0.58,-1.1 -1.05,-1.78 -1.42,-2.06 -0.37,-0.28 -0.93,-0.42 -1.7,-0.42l0 9.76 -4.49 0 0 -22.3zm-17.74 3.77l-3.51 0c-1.78,0 -2.95,0.04 -3.51,0.12 -0.56,0.09 -1.05,0.36 -1.45,0.82 -0.41,0.47 -0.61,1.07 -0.61,1.83 0,0.78 0.2,1.4 0.59,1.86 0.39,0.47 0.88,0.75 1.48,0.86 0.6,0.12 1.84,0.17 3.68,0.17l3.33 0 0 -5.66zm0 18.53l0 -9.3 -0.92 0c-1.41,0 -2.41,0.21 -2.99,0.63 -0.58,0.43 -1.58,1.7 -2.98,3.82l-3.25 4.85 -5.37 0 2.71 -4.35c1.08,-1.72 1.93,-2.93 2.57,-3.63 0.63,-0.69 1.44,-1.31 2.4,-1.86 -2.08,-0.32 -3.57,-1.05 -4.49,-2.17 -0.93,-1.12 -1.39,-2.46 -1.39,-4.02 0,-1.37 0.34,-2.57 1.03,-3.62 0.68,-1.05 1.58,-1.75 2.7,-2.11 1.11,-0.36 2.79,-0.54 5.02,-0.54l9.45 0 0 22.3 -4.49 0zm-23.96 -8.82l-3.07 -8.28 -3.01 8.28 6.08 0zm8.27 8.82l-4.89 0 -1.95 -5.06 -8.89 0 -1.84 5.06 -4.76 0 8.67 -22.3 4.74 0 8.92 22.3zm-42.5 0l0 -22.3 4.5 0 0 8.78 8.8 0 0 -8.78 4.49 0 0 22.3 -4.49 0 0 -9.75 -8.8 0 0 9.75 -4.5 0zm-17.78 -3.74l4.37 0c1.41,0 2.4,-0.07 2.94,-0.2 0.55,-0.14 1.04,-0.46 1.47,-0.94 0.43,-0.49 0.65,-1.08 0.65,-1.8 0,-1.02 -0.37,-1.77 -1.1,-2.25 -0.74,-0.48 -1.99,-0.71 -3.77,-0.71l-4.56 0 0 5.9zm-4.49 -18.56l4.49 0 0 8.92 6.01 0c2.83,0 4.88,0.66 6.16,1.99 1.27,1.33 1.9,2.92 1.9,4.78 0,1.52 -0.38,2.81 -1.16,3.88 -0.76,1.06 -1.64,1.78 -2.62,2.16 -0.99,0.38 -2.41,0.57 -4.28,0.57l-10.5 0 0 -22.3zm-20.31 0l15.59 0 0 22.3 -4.49 0 0 -18.53 -6.69 0 0 9.53c0,2.72 -0.1,4.63 -0.28,5.71 -0.18,1.08 -0.63,1.92 -1.33,2.52 -0.7,0.61 -1.8,0.91 -3.3,0.91 -0.53,0 -1.48,-0.05 -2.87,-0.15l0 -3.49 1 0.02c0.95,0 1.58,-0.12 1.9,-0.38 0.32,-0.26 0.49,-0.88 0.49,-1.87l-0.02 -3.84 0 -12.73zm-22.32 22.3l0 -22.3 16.49 0 0 3.77 -12 0 0 4.95 11.17 0 0 3.75 -11.17 0 0 6.07 12.43 0 0 3.76 -16.92 0zm-13.98 0l0 -18.53 -6.6 0 0 -3.77 17.68 0 0 3.77 -6.59 0 0 18.53 -4.49 0zm-27.3 -22.3l4.21 0 0 14.85 9.01 -14.85 4.48 0 0 22.3 -4.2 0 0 -14.56 -9.01 14.56 -4.49 0 0 -22.3zm-20.52 11.14c0,2.52 0.59,4.44 1.75,5.74 1.16,1.3 2.64,1.96 4.43,1.96 1.79,0 3.26,-0.65 4.41,-1.95 1.15,-1.29 1.72,-3.23 1.72,-5.81 0,-2.56 -0.55,-4.47 -1.67,-5.73 -1.12,-1.25 -2.61,-1.88 -4.46,-1.88 -1.85,0 -3.34,0.64 -4.48,1.91 -1.13,1.27 -1.7,3.19 -1.7,5.76l0 0zm-4.63 0.15c0,-2.28 0.34,-4.18 1.02,-5.73 0.51,-1.13 1.2,-2.15 2.08,-3.05 0.87,-0.9 1.83,-1.58 2.87,-2.01 1.39,-0.59 2.99,-0.88 4.8,-0.88 3.27,0 5.89,1.02 7.86,3.06 1.97,2.03 2.96,4.87 2.96,8.5 0,3.6 -0.98,6.42 -2.93,8.45 -1.96,2.04 -4.57,3.05 -7.83,3.05 -3.31,0 -5.94,-1.01 -7.9,-3.03 -1.95,-2.02 -2.93,-4.82 -2.93,-8.36l0 0zm-14.91 -7.52l0 6.33 2.45 0c1.78,0 2.96,-0.12 3.56,-0.35 0.59,-0.23 1.06,-0.6 1.4,-1.09 0.34,-0.51 0.51,-1.08 0.51,-1.74 0,-0.81 -0.24,-1.48 -0.72,-2.01 -0.47,-0.53 -1.07,-0.86 -1.8,-0.99 -0.54,-0.1 -1.62,-0.15 -3.23,-0.15l-2.17 0zm-4.5 18.53l0 -22.3 7.21 0c2.73,0 4.52,0.11 5.34,0.33 1.28,0.33 2.35,1.07 3.21,2.18 0.86,1.13 1.29,2.58 1.29,4.35 0,1.37 -0.25,2.52 -0.75,3.45 -0.5,0.94 -1.12,1.67 -1.89,2.21 -0.76,0.53 -1.54,0.88 -2.33,1.05 -1.07,0.21 -2.62,0.32 -4.66,0.32l-2.92 0 0 8.41 -4.5 0zm-13.97 0l0 -18.53 -6.61 0 0 -3.77 17.68 0 0 3.77 -6.58 0 0 18.53 -4.49 0zm-12.45 -8.2l4.35 1.38c-0.67,2.44 -1.78,4.25 -3.33,5.43 -1.55,1.18 -3.53,1.77 -5.92,1.77 -2.95,0 -5.38,-1.01 -7.28,-3.03 -1.89,-2.02 -2.85,-4.79 -2.85,-8.3 0,-3.72 0.96,-6.6 2.87,-8.65 1.91,-2.05 4.42,-3.08 7.54,-3.08 2.72,0 4.94,0.8 6.63,2.42 1.02,0.95 1.78,2.32 2.29,4.1l-4.45 1.07c-0.27,-1.16 -0.81,-2.07 -1.65,-2.74 -0.84,-0.67 -1.85,-1 -3.05,-1 -1.64,0 -2.99,0.59 -4.01,1.78 -1.03,1.18 -1.54,3.1 -1.54,5.76 0,2.82 0.5,4.83 1.52,6.03 1.01,1.2 2.32,1.8 3.94,1.8 1.2,0 2.22,-0.38 3.08,-1.15 0.86,-0.76 1.48,-1.96 1.86,-3.59l0 0z"/>
   </g>
  </g>
 </g>
</svg>
