<svg width="32" height="32" viewBox="0 0 32 32" fill="none" xmlns="http://www.w3.org/2000/svg">
<path fill-rule="evenodd" clip-rule="evenodd" d="M15.5652 8C13.3542 8 11.5618 9.85634 11.5618 12.1462C11.5618 14.4361 13.3542 16.2925 15.5652 16.2925C17.7762 16.2925 19.5685 14.4361 19.5685 12.1462C19.5685 9.85634 17.7762 8 15.5652 8ZM15.5652 13.8602C14.6512 13.8602 13.9103 13.0928 13.9103 12.1462C13.9103 11.1997 14.6512 10.4323 15.5652 10.4323C16.4791 10.4323 17.22 11.1997 17.22 12.1462C17.22 13.0928 16.4791 13.8602 15.5652 13.8602Z" fill="#2C2E32"/>
<path d="M16.9785 19.5916C18.5812 19.2535 19.5416 18.4674 19.5924 18.4252C20.0614 18.0357 20.1367 17.3262 19.7606 16.8404C19.3846 16.3547 18.6996 16.2767 18.2305 16.6661C18.2206 16.6745 17.1964 17.4881 15.5113 17.4895C15.5112 17.4895 15.511 17.4895 15.5108 17.4895C15.5109 17.4894 15.511 17.4894 15.5111 17.4894C15.5116 17.4894 15.512 17.4895 15.5108 17.4895C15.5096 17.4895 15.51 17.4894 15.5105 17.4894C15.5106 17.4894 15.5107 17.4894 15.5108 17.4895C15.5106 17.4895 15.5104 17.4895 15.5103 17.4895C13.8252 17.4881 12.7794 16.6745 12.7695 16.6661C12.3004 16.2767 11.6154 16.3547 11.2394 16.8404C10.8633 17.3262 10.9386 18.0357 11.4076 18.4252C11.4591 18.468 12.4591 19.2745 14.1067 19.6047L11.8105 22.0901C11.3932 22.5384 11.4057 23.252 11.8385 23.6842C12.0497 23.8952 12.322 24 12.594 24C12.8792 24 13.1641 23.8846 13.3777 23.6551L15.5109 21.3016L17.8595 23.6704C18.2851 24.1104 18.9742 24.1097 19.3989 23.6692C19.8237 23.2285 19.8231 22.5147 19.3977 22.0748L16.9785 19.5916Z" fill="#2C2E32"/>
</svg>
