<svg width="512" height="512" viewBox="0 0 512 512" fill="none" xmlns="http://www.w3.org/2000/svg">
<path d="M446.605 124.392L326.608 4.395C323.807 1.593 319.984 0 316 0H106C81.187 0 61 20.187 61 45V467C61 491.813 81.187 512 106 512H406C430.813 512 451 491.813 451 467V135C451 130.91 449.283 127.069 446.605 124.392ZM331 51.213L399.787 120H346C337.729 120 331 113.271 331 105V51.213ZM406 482H106C97.729 482 91 475.271 91 467V45C91 36.729 97.729 30 106 30H301V105C301 129.813 321.187 150 346 150H421V467C421 475.271 414.271 482 406 482Z" fill="#808080"/>
<path d="M346 212H166C157.716 212 151 218.716 151 227C151 235.284 157.716 242 166 242H346C354.284 242 361 235.284 361 227C361 218.716 354.284 212 346 212Z" fill="#808080"/>
<path d="M346 272H166C157.716 272 151 278.716 151 287C151 295.284 157.716 302 166 302H346C354.284 302 361 295.284 361 287C361 278.716 354.284 272 346 272Z" fill="#808080"/>
<path d="M346 332H166C157.716 332 151 338.716 151 347C151 355.284 157.716 362 166 362H346C354.284 362 361 355.284 361 347C361 338.716 354.284 332 346 332Z" fill="#808080"/>
<path d="M286 392H166C157.716 392 151 398.716 151 407C151 415.284 157.716 422 166 422H286C294.284 422 301 415.284 301 407C301 398.716 294.284 392 286 392Z" fill="#808080"/>
</svg>
