<svg xmlns="http://www.w3.org/2000/svg" width="23.032" height="23.969" viewBox="0 0 23.032 23.969">
  <defs>
    <style>
      .cls-1 {
        fill: #fff;
        fill-rule: evenodd;
      }
    </style>
  </defs>
  <path id="sale_white" class="cls-1" d="M475.07,790.288h0a0.631,0.631,0,0,1,0-.556l0.89-1.818a2.137,2.137,0,0,0-.923-2.839l-1.79-.948a0.631,0.631,0,0,1-.327-0.449l-0.35-1.993a2.14,2.14,0,0,0-2.417-1.755l-2,.284a0.632,0.632,0,0,1-.53-0.172l-1.455-1.407a2.143,2.143,0,0,0-2.988,0l-1.456,1.407a0.631,0.631,0,0,1-.529.172l-2.006-.284a2.14,2.14,0,0,0-2.417,1.755l-0.35,1.992a0.628,0.628,0,0,1-.327.45l-1.789.948a2.137,2.137,0,0,0-.924,2.839l0.89,1.818a0.631,0.631,0,0,1,0,.556l-0.89,1.817a2.137,2.137,0,0,0,.924,2.839l1.789,0.948a0.628,0.628,0,0,1,.327.45l0.35,1.993a2.141,2.141,0,0,0,2.11,1.776,2.264,2.264,0,0,0,.307-0.022l2.006-.283a0.631,0.631,0,0,1,.529.171l1.456,1.407a2.142,2.142,0,0,0,2.988,0l1.455-1.407a0.632,0.632,0,0,1,.53-0.171l2,0.283a2.142,2.142,0,0,0,2.417-1.754l0.35-1.993a0.631,0.631,0,0,1,.327-0.45l1.79-.948a2.137,2.137,0,0,0,.923-2.839Zm-1.361-1.221a2.131,2.131,0,0,0,0,1.885l0.89,1.818a0.63,0.63,0,0,1-.273.837l-1.789.948a2.135,2.135,0,0,0-1.109,1.525l-0.35,1.993a0.63,0.63,0,0,1-.713.517l-2-.283a2.136,2.136,0,0,0-1.8.582l-1.456,1.407a0.631,0.631,0,0,1-.881,0l-1.456-1.407a2.136,2.136,0,0,0-1.489-.6,2.238,2.238,0,0,0-.306.022l-2,.283a0.632,0.632,0,0,1-.713-0.517l-0.35-1.993a2.131,2.131,0,0,0-1.109-1.525l-1.789-.948a0.63,0.63,0,0,1-.272-0.837l0.889-1.818a2.131,2.131,0,0,0,0-1.885l-0.889-1.818a0.628,0.628,0,0,1,.272-0.836l1.789-.949a2.129,2.129,0,0,0,1.109-1.525l0.35-1.993a0.632,0.632,0,0,1,.713-0.517l2,0.283a2.132,2.132,0,0,0,1.8-.582l1.456-1.407a0.633,0.633,0,0,1,.881,0l1.456,1.407a2.133,2.133,0,0,0,1.8.582l2-.283a0.631,0.631,0,0,1,.713.517l0.35,1.993a2.131,2.131,0,0,0,1.109,1.525l1.789,0.949a0.629,0.629,0,0,1,.273.836Zm-3.744-3.591a0.758,0.758,0,0,0-1.293-.536l-9.078,9.069a0.757,0.757,0,1,0,1.071,1.07l9.078-9.068A0.748,0.748,0,0,0,469.965,785.476Zm-8.048,3.458a2.589,2.589,0,1,0-2.591-2.588A2.592,2.592,0,0,0,461.917,788.934Zm-1.076-2.588a1.077,1.077,0,1,1,1.076,1.075A1.078,1.078,0,0,1,460.841,786.346Zm6.579,4.739a2.589,2.589,0,1,0,2.591,2.589A2.593,2.593,0,0,0,467.42,791.085Zm1.076,2.589a1.077,1.077,0,1,1-1.076-1.076A1.077,1.077,0,0,1,468.5,793.674Z" transform="translate(-453.156 -778.031)"/>
</svg>