<svg width="512" height="512" viewBox="0 0 512 512" fill="none" xmlns="http://www.w3.org/2000/svg">
<path d="M432.906 0H79C67.9531 0 59 8.95312 59 20V492C59 503.047 67.9531 512 79 512H432.906C443.953 512 452.906 503.047 452.906 492V20C452.906 8.95312 443.953 0 432.906 0ZM197.285 472V354.668H314.621V472H197.285ZM412.906 472H354.621V334.668C354.621 323.621 345.668 314.668 334.621 314.668H177.285C166.242 314.668 157.285 323.621 157.285 334.668V472H99V40H412.906V472ZM157.285 119.332C157.285 108.285 166.242 99.332 177.285 99.332H216.621C227.668 99.332 236.621 108.285 236.621 119.332C236.621 130.379 227.668 139.332 216.621 139.332H177.285C166.242 139.332 157.285 130.379 157.285 119.332ZM157.285 235.332C157.285 224.285 166.242 215.332 177.285 215.332H216.621C227.668 215.332 236.621 224.285 236.621 235.332C236.621 246.379 227.668 255.332 216.621 255.332H177.285C166.242 255.332 157.285 246.379 157.285 235.332ZM275.285 119.332C275.285 108.285 284.242 99.332 295.285 99.332H334.621C345.668 99.332 354.621 108.285 354.621 119.332C354.621 130.379 345.668 139.332 334.621 139.332H295.285C284.242 139.332 275.285 130.379 275.285 119.332ZM275.285 235.332C275.285 224.285 284.242 215.332 295.285 215.332H334.621C345.668 215.332 354.621 224.285 354.621 235.332C354.621 246.379 345.668 255.332 334.621 255.332H295.285C284.242 255.332 275.285 246.379 275.285 235.332Z" fill="#808080"/>
</svg>
