<svg width="401" height="401" viewBox="0 0 401 401" fill="none" xmlns="http://www.w3.org/2000/svg">
<path d="M370.107 251.906C364.591 251.906 360.12 256.377 360.12 261.893V350.566C360.101 367.107 346.7 380.512 330.159 380.527H49.9349C33.394 380.512 19.9935 367.107 19.974 350.566V90.3157C19.9935 73.7787 33.394 60.3743 49.9349 60.3548H138.608C144.125 60.3548 148.595 55.8841 148.595 50.3678C148.595 44.8555 144.125 40.3809 138.608 40.3809H49.9349C22.3693 40.4121 0.0312093 62.7501 0 90.3157V350.57C0.0312093 378.136 22.3693 400.474 49.9349 400.505H330.159C357.725 400.474 380.063 378.136 380.094 350.57V261.893C380.094 256.377 375.624 251.906 370.107 251.906Z" fill="#808080"/>
<path d="M376.138 14.6835C358.587 -2.86781 330.132 -2.86781 312.581 14.6835L134.407 192.857C133.186 194.079 132.304 195.592 131.844 197.254L108.413 281.843C107.45 285.311 108.429 289.025 110.972 291.572C113.52 294.116 117.234 295.095 120.702 294.136L205.291 270.701C206.953 270.241 208.466 269.359 209.687 268.138L387.857 89.9604C405.381 72.3973 405.381 43.9656 387.857 26.4026L376.138 14.6835ZM156.167 199.349L301.989 53.5235L349.018 100.552L203.192 246.377L156.167 199.349ZM146.773 218.199L184.345 255.775L132.374 270.175L146.773 218.199ZM373.735 75.8382L363.144 86.4298L316.111 39.3974L326.707 28.8057C336.456 19.0567 352.263 19.0567 362.012 28.8057L373.735 40.5248C383.469 50.2855 383.469 66.0813 373.735 75.8382Z" fill="#808080"/>
</svg>
