<svg width="109" height="109" viewBox="0 0 109 109" fill="none" xmlns="http://www.w3.org/2000/svg">
<path fill-rule="evenodd" clip-rule="evenodd" d="M59.1201 20.5058C58.4945 20.4605 57.8629 20.4375 57.2258 20.4375C42.9285 20.4375 31.3383 32.0277 31.3383 46.325C31.3383 47.288 31.391 48.24 31.4941 49.1779L2.52385 78.8968C1.77974 79.6601 1.36328 80.684 1.36328 81.75V98.1C1.36328 100.357 3.19332 102.187 5.45078 102.187H21.8008C24.0582 102.187 25.8883 100.357 25.8883 98.1V91.2875H32.7008C34.9582 91.2875 36.7883 89.4575 36.7883 87.2V81.9711L39.5832 82.9027C41.0947 83.4066 42.7613 82.9862 43.853 81.8257L53.191 71.8993C54.5076 72.1056 55.8553 72.2125 57.2258 72.2125C57.6828 72.2125 58.1371 72.2007 58.5883 72.1773V100.825C58.5883 103.082 60.4183 104.912 62.6758 104.912H100.826C103.083 104.912 104.913 103.082 104.913 100.825V57.225C104.913 54.9675 103.083 53.1375 100.826 53.1375H99.4633V24.525C99.4633 21.4293 98.3881 17.0285 95.1987 13.3371C91.8815 9.49773 86.6114 6.8125 79.0258 6.8125C71.4401 6.8125 66.17 9.49773 62.8528 13.3371C60.8853 15.6143 59.7224 18.1615 59.1201 20.5058ZM67.0801 22.3791C76.4896 26.2555 83.1133 35.5167 83.1133 46.325C83.1133 48.6827 82.7981 50.9668 82.2075 53.1375H91.2883V24.525C91.2883 23.0791 90.7285 20.6674 89.0128 18.6817C87.425 16.8439 84.5201 14.9875 79.0258 14.9875C73.5314 14.9875 70.6266 16.8439 69.0387 18.6817C68.0197 19.8611 67.4085 21.1907 67.0801 22.3791ZM96.7383 61.3125H78.3361C75.4581 65.3588 71.4459 68.5423 66.7633 70.399V96.7375H96.7383V61.3125ZM44.7058 68.9882C40.2095 66.4998 36.5335 62.7133 34.1821 58.1319L9.53828 83.4126V94.0125H17.7133V87.2C17.7133 84.9425 19.5433 83.1125 21.8008 83.1125H28.6133V76.3C28.6133 74.9861 29.2449 73.7523 30.3108 72.984C31.3767 72.2158 32.7469 72.0068 33.9934 72.4223L39.6892 74.3209L44.7058 68.9882ZM58.5883 28.6641C58.1386 28.6299 57.6842 28.6125 57.2258 28.6125C47.4434 28.6125 39.5133 36.5427 39.5133 46.325C39.5133 47.512 39.6295 48.6678 39.8499 49.783C41.1691 56.4582 46.2534 61.7961 52.7946 63.4797C54.2065 63.8431 55.6905 64.0375 57.2258 64.0375C67.0081 64.0375 74.9383 56.1073 74.9383 46.325C74.9383 45.3101 74.8529 44.3152 74.689 43.347C73.5453 48.9345 68.6014 53.1375 62.6758 53.1375C55.9034 53.1375 50.4133 47.6474 50.4133 40.875C50.4133 35.5358 53.8256 30.9936 58.5883 29.3103V28.6641ZM62.6758 36.7875C60.4183 36.7875 58.5883 38.6175 58.5883 40.875C58.5883 43.1325 60.4183 44.9625 62.6758 44.9625C64.9332 44.9625 66.7633 43.1325 66.7633 40.875C66.7633 38.6175 64.9332 36.7875 62.6758 36.7875ZM69.4883 87.2C69.4883 84.9425 71.3183 83.1125 73.5758 83.1125H89.9258C92.1832 83.1125 94.0133 84.9425 94.0133 87.2C94.0133 89.4575 92.1832 91.2875 89.9258 91.2875H73.5758C71.3183 91.2875 69.4883 89.4575 69.4883 87.2Z" fill="#808080"/>
</svg>
